# xmcd CD database file
#
# Track frame offsets:
#	150
#	13302
#	27226
#	64457
#	75931
#	93591
#	108684
#	125903
#	136611
#	156451
#	170809
#	193859
#	207026
#	220712
#	232085
#	243411
#
# Disc length: 3456 seconds
#
# Revision: 0
# Processed by: cddbd v1.5.1PL2 Copyright (c) Steve Scherf et al.
# Submitted via: CDex 1.51
#
DISCID=ec0d7e10
DTITLE=Totally 70's - Totally 70's - Disc 2
DYEAR=1900
DGENRE=Ingles
TTITLE0=The sound of Philadelphia - The Three Degrees
TTITLE1=Let's all chant - Michael Zeger Band
TTITLE2=Heaven must be missing an angel - Tavares
TTITLE3=Baby come back - Equals
TTITLE4=Gloria - Santa Esmeralda
TTITLE5=Sara perche ti amo - Ricchi e Poveri
TTITLE6=Alone again - Gilbert Benson
TTITLE7=Bimbo - The Bimbo
TTITLE8=American pie - Don Trim
TTITLE9=Seasons in the son- Middle of the Road
TTITLE10=Never can say goodbye - Gloria Gaynor
TTITLE11=Chirpy Chirpy - Middle of the Road
TTITLE12=Beautiful sunday - Daniel Boone
TTITLE13=You're having my bvaby - Don Trim, Tina Douglas
TTITLE14=I'd like to teach the world to sing - New Seekers
TTITLE15=You've got a friend - Tom Jones
EXTD=
EXTT0=
EXTT1=
EXTT2=
EXTT3=
EXTT4=
EXTT5=
EXTT6=
EXTT7=
EXTT8=
EXTT9=
EXTT10=
EXTT11=
EXTT12=
EXTT13=
EXTT14=
EXTT15=
PLAYORDER=
